<?xml version="1.0" encoding="utf-8"?>
<!-- Generator: Adobe Illustrator 23.0.1, SVG Export Plug-In . SVG Version: 6.00 Build 0)  -->
<svg version="1.1" xmlns="http://www.w3.org/2000/svg" xmlns:xlink="http://www.w3.org/1999/xlink" x="0px" y="0px"
	 viewBox="0 0 144 216" style="enable-background:new 0 0 144 216;" xml:space="preserve">
<style type="text/css">
	.st0{display:none;}
	.st1{display:inline;fill:none;stroke:#000000;stroke-width:9;stroke-linecap:round;stroke-linejoin:round;stroke-miterlimit:10;}
	
		.st2{display:inline;fill:#FFFFFF;stroke:#000000;stroke-width:9;stroke-linecap:round;stroke-linejoin:round;stroke-miterlimit:10;}
	.st3{display:inline;}
</style>
<g id="Layer_1" class="st0">
	<g id="oqYXBH.tif">
		
			<image style="display:inline;overflow:visible;" width="512" height="512" id="Layer_0_1_" xlink:href="E3B261DFFC64E3CA.png"  transform="matrix(0.3516 0 0 0.3516 -18 19)">
		</image>
	</g>
	<polygon class="st1" points="153,198 -9,198 -18,45 162,45 	"/>
	<circle class="st2" cx="72" cy="58.5" r="40.5"/>
	<circle class="st3" cx="72" cy="58.5" r="9"/>
	<line class="st1" x1="72" y1="40.5" x2="72" y2="58.5"/>
	<line class="st1" x1="31.5" y1="58.5" x2="40.5" y2="58.5"/>
	<line class="st1" x1="103.5" y1="58.5" x2="112.5" y2="58.5"/>
	<line class="st1" x1="72" y1="18" x2="72" y2="27"/>
	<line class="st1" x1="72" y1="90" x2="72" y2="99"/>
	<line class="st1" x1="72" y1="117" x2="72" y2="180"/>
</g>
<g id="Layer_2">
	<path d="M72,81c-5,0-9-4-9-9c0-5,9-30,9-30s9,25,9,30C81,77,77,81,72,81z M56.2,177.8c0,8.7,7.1,15.8,15.8,15.8c8,0,14.8-6,15.7-14
		c0.3-2.5,2.5-4.2,5-4c2.5,0.3,4.3,2.5,4,5c-1.4,12.5-12,22-24.6,22c-13.6,0-24.8-11.1-24.8-24.8c0-12.1,8.7-22.2,20.2-24.3v-5.5
		c-7.8-2-13.5-9-13.5-17.4v-2.8c-8.7-2.8-16.7-7.6-23.4-14.3c-11.3-11.3-17-26.1-17.1-41c0-0.1,0-0.2,0-0.4c0-0.1,0-0.2,0-0.4
		c0.1-14.9,5.8-29.7,17.1-41c11-11,25.7-17.1,41.4-17.1c15.6,0,30.3,6.1,41.4,17.1c11,11,17.1,25.7,17.1,41.4s-6.1,30.3-17.1,41.4
		c-6.7,6.7-14.7,11.5-23.4,14.3v2.8c0,8.4-5.7,15.4-13.5,17.4v9.6c0,2.5-2,4.5-4.5,4.5C63.3,162,56.2,169.1,56.2,177.8z M76.5,114
		v7.3c10-0.9,19.4-4.8,27.2-11.3l-5.2-5.2c-1.8-1.8-1.8-4.6,0-6.4c1.8-1.8,4.6-1.8,6.4,0l5.2,5.2c6.5-7.7,10.4-17.1,11.3-27.2H114
		c-2.5,0-4.5-2-4.5-4.5s2-4.5,4.5-4.5h7.3c-0.9-10-4.8-19.4-11.3-27.2l-5.2,5.2c-0.9,0.9-2,1.3-3.2,1.3s-2.3-0.4-3.2-1.3
		c-1.8-1.8-1.8-4.6,0-6.4l5.2-5.2c-7.7-6.5-17.1-10.4-27.2-11.3V30c0,2.5-2,4.5-4.5,4.5s-4.5-2-4.5-4.5v-7.3
		c-10,0.9-19.4,4.8-27.2,11.3l5.2,5.2c1.8,1.8,1.8,4.6,0,6.4c-0.9,0.9-2,1.3-3.2,1.3s-2.3-0.4-3.2-1.3L34,40.3
		c-6.6,7.9-10.4,17.4-11.2,27.2H30c2.5,0,4.5,2,4.5,4.5s-2,4.5-4.5,4.5h-7.3c0.9,9.7,4.6,19.2,11.2,27.2l5.2-5.2
		c1.8-1.8,4.6-1.8,6.4,0c1.8,1.8,1.8,4.6,0,6.4l-5.2,5.2c7.7,6.5,17.1,10.4,27.2,11.3V114c0-2.5,2-4.5,4.5-4.5S76.5,111.5,76.5,114z
		 M72,139.5c5,0,9-4,9-9v-0.7c-3,0.5-6,0.7-9,0.7s-6-0.2-9-0.7v0.7C63,135.5,67,139.5,72,139.5z"/>
</g>
</svg>
