<?xml version="1.0" encoding="utf-8"?>
<!-- Generator: Adobe Illustrator 23.0.1, SVG Export Plug-In . SVG Version: 6.00 Build 0)  -->
<svg version="1.1" id="Layer_1" xmlns="http://www.w3.org/2000/svg" xmlns:xlink="http://www.w3.org/1999/xlink" x="0px" y="0px"
	 viewBox="0 0 216 216" style="enable-background:new 0 0 216 216;" xml:space="preserve">
<path d="M108,120c-3.1,0-6.1-0.8-9-2.4c-8.6-5-11.5-16-6.6-24.6c5-8.6,16-11.6,24.6-6.6c8.6,5,11.5,16,6.6,24.6
	C120.3,116.8,114.2,120,108,120z M108,93c-3.1,0-6.1,1.6-7.8,4.5c-2.5,4.3-1,9.8,3.3,12.3c4.3,2.5,9.8,1,12.3-3.3
	c2.5-4.3,1-9.8-3.3-12.3C111.1,93.4,109.5,93,108,93z M108,196.4c-16.3,0-32.7-4.2-47.2-12.6c-1-0.6-1.8-1.6-2.1-2.7
	c-0.3-1.2-0.1-2.4,0.4-3.4L88.4,127c0.6-1,1.6-1.8,2.7-2.1c1.2-0.3,2.4-0.1,3.4,0.4c8.3,4.8,18.7,4.8,27,0c2.1-1.2,4.9-0.5,6.1,1.6
	l29.3,50.7c0.6,1,0.8,2.3,0.4,3.4s-1.1,2.1-2.1,2.7C140.7,192.2,124.3,196.4,108,196.4z M69.2,178.2c24.3,12.3,53.3,12.3,77.6,0
	l-24.8-43c-8.9,3.7-19,3.7-27.9,0L69.2,178.2z M76.5,106.5H18c-2.5,0-4.5-2-4.5-4.5c0-16.5,4.4-32.9,12.7-47.2
	c8.3-14.4,20.3-26.3,34.6-34.6c2.2-1.2,4.9-0.5,6.1,1.6l29.3,50.7c0.6,1,0.8,2.3,0.4,3.4c-0.3,1.2-1.1,2.1-2.1,2.7
	c-4.1,2.4-7.5,5.8-9.9,9.9l0,0C82.3,92.6,81,97.3,81,102c0,1.2-0.5,2.3-1.3,3.2C78.8,106,77.7,106.5,76.5,106.5z M22.6,97.5h49.7
	c0.6-4.7,2.1-9.3,4.5-13.5l0,0c2.4-4.2,5.6-7.8,9.4-10.7l-24.8-43c-11.3,7.3-20.7,17.2-27.4,29C27.2,71,23.3,84.1,22.6,97.5z
	 M80.7,86.3L80.7,86.3L80.7,86.3z M198,106.5h-58.5c-2.5,0-4.5-2-4.5-4.5c0-9.6-5.2-18.6-13.5-23.4c-1-0.6-1.8-1.6-2.1-2.7
	c-0.3-1.2-0.1-2.4,0.4-3.4l29.2-50.7c0.6-1,1.6-1.8,2.7-2.1c1.2-0.3,2.4-0.1,3.4,0.4c29.1,16.8,47.2,48.2,47.3,81.8
	c0,1.2-0.5,2.3-1.3,3.2C200.3,106,199.2,106.5,198,106.5z M143.7,97.5h49.7c-1.5-27.2-16-52.3-38.8-67.2l-24.8,43
	C137.4,79.2,142.5,87.9,143.7,97.5z"/>
</svg>
