<?xml version="1.0" encoding="utf-8"?>
<!-- Generator: Adobe Illustrator 23.0.1, SVG Export Plug-In . SVG Version: 6.00 Build 0)  -->
<svg version="1.1" id="Layer_1" xmlns="http://www.w3.org/2000/svg" xmlns:xlink="http://www.w3.org/1999/xlink" x="0px" y="0px"
	 viewBox="0 0 117 216" style="enable-background:new 0 0 117 216;" xml:space="preserve">
<path d="M99,31.5H85.5V18c0-2.5-2-4.5-4.5-4.5H36c-2.5,0-4.5,2-4.5,4.5v13.5H18c-2.5,0-4.5,2-4.5,4.5v162c0,2.5,2,4.5,4.5,4.5h81
	c2.5,0,4.5-2,4.5-4.5V36C103.5,33.5,101.5,31.5,99,31.5z M40.5,22.5h36v9h-36V22.5z M94.5,193.5h-72v-153H36h45h13.5V193.5z
	 M27,49.5v135c0,2.5,2,4.5,4.5,4.5h54c2.5,0,4.5-2,4.5-4.5v-135c0-2.5-2-4.5-4.5-4.5h-54C29,45,27,47,27,49.5z M65.5,180H56l25-25
	v9.5L65.5,180z M81,173v7h-7L81,173z M47.5,180H38l43-43v9.5L47.5,180z M36,173.5V164l45-45v9.5L36,173.5z M36,155.5V146l45-45v9.5
	L36,155.5z M36,137.5V128l33.5-33.5H79L36,137.5z M36,119.5V110l15.5-15.5H61L36,119.5z M36,101.5v-7h7L36,101.5z M81,54v31.5H36V54
	H81z"/>
</svg>
