<?xml version="1.0" encoding="utf-8"?>
<!-- Generator: Adobe Illustrator 23.0.1, SVG Export Plug-In . SVG Version: 6.00 Build 0)  -->
<svg version="1.1" id="Layer_1" xmlns="http://www.w3.org/2000/svg" xmlns:xlink="http://www.w3.org/1999/xlink" x="0px" y="0px"
	 viewBox="0 0 216 216" style="enable-background:new 0 0 216 216;" xml:space="preserve">
<path d="M90,53.7C90,43.9,82.1,36,72.3,36s-17.6,7.9-17.6,17.6c0,9.7,7.9,17.6,17.6,17.6S90,63.4,90,53.7z M63.7,53.7
	c0-4.8,3.9-8.6,8.6-8.6s8.6,3.9,8.6,8.6s-3.9,8.6-8.6,8.6S63.7,58.4,63.7,53.7z M202.4,197.1l-11.9-59.4l3.9-5.7
	c12-16.1,10.2-42.4-3.8-56.5c-7.6-7.7-17.8-11.9-28.6-11.9c-10.8,0-21,4.2-28.6,11.9c-7.1,7.1-11.1,17.4-11.7,27.9H89.5l15-21.7
	c12-16.1,10.2-42.4-3.8-56.5C93,17.7,82.8,13.5,72,13.5c-10.8,0-21,4.2-28.6,11.9c-14,14-15.8,40.4-3.9,56.4l15,21.7H36
	c-2.1,0-4,1.5-4.4,3.6l-18,90c-0.3,1.3,0.1,2.7,0.9,3.7c0.9,1,2.1,1.6,3.5,1.6h180c1.3,0,2.6-0.6,3.5-1.6
	C202.3,199.8,202.7,198.4,202.4,197.1z M139.7,81.9c6-6,13.9-9.2,22.3-9.2c8.4,0,16.3,3.3,22.3,9.2c10.9,10.9,12.3,32.3,2.9,44.8
	c0,0-0.1,0.1-0.1,0.1L162,163.1l-25.1-36.3c0,0-0.1-0.1-0.1-0.1C127.4,114.2,128.8,92.8,139.7,81.9z M46.8,76.4
	c-9.4-12.5-8-33.8,3-44.7c6-6,13.9-9.2,22.3-9.2c8.4,0,16.3,3.3,22.3,9.2c10.9,10.9,12.3,32.3,2.9,44.8c0,0-0.1,0.1-0.1,0.1
	L72,112.9L46.9,76.6C46.8,76.5,46.8,76.5,46.8,76.4z M23.5,193.5l16.2-81h21.1l7.5,10.9c0.8,1.2,2.2,1.9,3.7,1.9s2.9-0.7,3.7-1.9
	l7.5-10.9H122c0.9,7.1,3.4,13.9,7.5,19.5l28.8,41.6c0.8,1.2,2.2,1.9,3.7,1.9s2.9-0.7,3.7-1.9l17.7-25.6l9.1,45.5H23.5z M162.3,121.5
	c9.7,0,17.6-7.9,17.6-17.6c0-9.7-7.9-17.6-17.6-17.6s-17.6,7.9-17.6,17.6C144.7,113.6,152.6,121.5,162.3,121.5z M162.3,95.2
	c4.8,0,8.6,3.9,8.6,8.6c0,4.8-3.9,8.6-8.6,8.6s-8.6-3.9-8.6-8.6C153.7,99.1,157.6,95.2,162.3,95.2z M158.5,182.5
	c-0.8,1.5-2.4,2.3-3.9,2.3c-0.7,0-1.5-0.2-2.2-0.6l-11.8-6.6c-2.2-1.2-2.9-4-1.7-6.1s4-2.9,6.1-1.7l11.8,6.6
	C158.9,177.6,159.7,180.4,158.5,182.5z M134.9,169.4c-0.8,1.5-2.4,2.3-3.9,2.3c-0.7,0-1.5-0.2-2.2-0.6l-11.8-6.6
	c-2.2-1.2-2.9-4-1.7-6.1c1.2-2.2,4-2.9,6.1-1.7l11.8,6.6C135.3,164.5,136.1,167.2,134.9,169.4z M111.3,156.2
	c-0.8,1.5-2.4,2.3-3.9,2.3c-0.7,0-1.5-0.2-2.2-0.6l-11.8-6.6c-2.2-1.2-2.9-4-1.7-6.1c1.2-2.2,4-2.9,6.1-1.7l11.8,6.6
	C111.7,151.3,112.5,154,111.3,156.2z M87.7,143.1c-0.8,1.5-2.4,2.3-3.9,2.3c-0.7,0-1.5-0.2-2.2-0.6l-11.8-6.6
	c-2.2-1.2-2.9-4-1.7-6.1c1.2-2.2,4-3,6.1-1.7l11.8,6.6C88.2,138.2,88.9,140.9,87.7,143.1z"/>
</svg>
