<?xml version="1.0" standalone="no"?>
<!DOCTYPE svg PUBLIC "-//W3C//DTD SVG 20010904//EN"
 "http://www.w3.org/TR/2001/REC-SVG-20010904/DTD/svg10.dtd">
<svg version="1.0" xmlns="http://www.w3.org/2000/svg"
 width="1000.000000pt" height="1000.000000pt" viewBox="0 0 1000.000000 1000.000000"
 preserveAspectRatio="xMidYMid meet">
<metadata>
Created by potrace 1.11, written by Peter Selinger 2001-2013
</metadata>
<g transform="translate(0.000000,1000.000000) scale(0.100000,-0.100000)"
fill="#000000" stroke="none">
<path d="M763 9368 c-40 -13 -94 -62 -119 -108 -18 -34 -18 -161 -19 -4260 l0
-4225 28 -47 c18 -31 44 -57 75 -75 l47 -28 4225 0 4225 0 47 28 c68 39 103
103 102 182 0 35 -7 73 -17 91 -21 40 -8392 8411 -8430 8431 -37 18 -122 24
-164 11z m858 -1287 c313 -313 569 -573 569 -577 0 -5 -100 -108 -222 -231
-123 -123 -233 -240 -245 -261 -59 -100 -17 -232 91 -290 41 -21 141 -21 186
1 19 9 139 120 265 247 l230 230 352 -352 353 -353 -239 -240 c-261 -262 -270
-276 -257 -373 19 -136 136 -209 276 -172 40 10 74 40 283 248 l237 237 353
-353 352 -352 -232 -232 c-127 -128 -239 -249 -249 -268 -38 -75 -10 -196 57
-249 65 -51 160 -61 230 -26 19 9 138 120 264 246 l230 229 353 -353 352 -352
-231 -230 c-243 -242 -269 -276 -269 -355 0 -107 80 -196 183 -207 108 -11
117 -5 375 253 129 129 237 234 241 234 3 0 164 -157 356 -350 l350 -350 -236
-237 c-134 -135 -241 -251 -247 -268 -42 -113 4 -227 111 -275 46 -21 132 -18
179 6 18 9 136 120 262 246 l229 229 354 -353 353 -353 -235 -235 c-153 -153
-240 -248 -250 -272 -38 -92 0 -204 88 -261 39 -25 117 -32 174 -16 43 12 73
38 282 246 128 128 236 233 240 233 7 0 1141 -1133 1141 -1140 0 -4 -7570 -5
-7606 -1 -8 1 -11 1082 -11 3811 0 2096 2 3810 5 3810 2 0 260 -256 573 -569z"/>
<path d="M2222 5409 c-44 -13 -114 -85 -128 -129 -15 -48 -15 -2997 -1 -3054
14 -53 80 -119 133 -133 59 -15 2996 -15 3049 0 54 16 120 83 135 139 14 48 7
115 -14 157 -20 37 -2971 2988 -3009 3008 -37 19 -122 25 -165 12z m1927
-2356 l553 -553 -1101 0 -1101 0 0 1101 0 1100 548 -548 c302 -301 797 -797
1101 -1100z"/>
<path d="M3157 9026 c-75 -28 -124 -93 -132 -177 -5 -51 10 -99 224 -735 126
-374 236 -694 244 -711 21 -40 4569 -4588 4621 -4621 68 -42 162 -69 251 -71
124 -2 222 30 349 114 52 35 430 403 497 486 155 189 188 422 87 612 -27 50
-384 411 -2293 2321 -1244 1243 -2280 2277 -2301 2296 -47 42 -16 31 -801 290
-337 111 -634 203 -660 206 -28 2 -65 -2 -86 -10z m1001 -731 c3 -2 -84 -93
-192 -201 -108 -108 -199 -194 -202 -192 -6 7 -194 570 -194 583 0 9 575 -176
588 -190z m2066 -1873 c916 -914 1666 -1665 1666 -1668 0 -3 -131 -136 -290
-296 l-290 -290 -1670 1668 -1670 1668 292 293 c161 161 293 291 294 290 2 -1
752 -750 1668 -1665z m2068 -2061 c48 -50 88 -94 88 -99 0 -4 -131 -138 -291
-296 l-290 -288 -95 96 -95 97 288 289 c158 159 292 289 297 289 5 1 49 -39
98 -88z m511 -522 c138 -138 144 -151 89 -232 -39 -56 -383 -400 -440 -439
-85 -58 -90 -56 -233 86 l-127 125 287 289 c157 159 290 290 294 291 5 0 63
-53 130 -120z"/>
<path d="M5129 7052 c-107 -43 -163 -182 -114 -286 20 -42 1501 -1528 1547
-1552 38 -20 119 -25 166 -11 20 7 56 31 78 54 64 66 81 163 41 240 -9 17
-358 373 -774 791 -696 697 -762 760 -803 771 -53 14 -93 12 -141 -7z"/>
</g>
</svg>
