<?xml version="1.0" encoding="utf-8"?>
<!-- Generator: Adobe Illustrator 23.0.1, SVG Export Plug-In . SVG Version: 6.00 Build 0)  -->
<svg version="1.1" id="Layer_1" xmlns="http://www.w3.org/2000/svg" xmlns:xlink="http://www.w3.org/1999/xlink" x="0px" y="0px"
	 viewBox="0 0 153 216" style="enable-background:new 0 0 153 216;" xml:space="preserve">
<path d="M40.1,202.5c-0.9,0-1.7-0.2-2.5-0.8c-1.7-1.2-2.5-3.4-1.7-5.3l25.7-67.7l-45.2-16.4c-1.5-0.5-2.6-1.8-2.9-3.3
	c-0.3-1.5,0.2-3.1,1.3-4.2l94.9-90c1.5-1.4,3.8-1.6,5.6-0.5c1.7,1.2,2.5,3.4,1.7,5.3L91.3,87.3l45.2,16.4c1.5,0.5,2.5,1.8,2.9,3.3
	c0.3,1.5-0.2,3.1-1.3,4.2l-94.9,90C42.4,202.1,41.2,202.5,40.1,202.5z M26.4,106.3L69,121.8c1.1,0.4,2.1,1.3,2.6,2.4
	c0.5,1.1,0.5,2.3,0.1,3.5l-20.4,53.6l75.3-71.4L84,94.2c-1.1-0.4-2.1-1.3-2.6-2.4c-0.5-1.1-0.5-2.3-0.1-3.5l20.4-53.6L26.4,106.3z"
	/>
</svg>
