<?xml version="1.0" encoding="utf-8"?>
<!-- Generator: Adobe Illustrator 23.0.1, SVG Export Plug-In . SVG Version: 6.00 Build 0)  -->
<svg version="1.1" id="Layer_1" xmlns="http://www.w3.org/2000/svg" xmlns:xlink="http://www.w3.org/1999/xlink" x="0px" y="0px"
	 viewBox="0 0 216 117" style="enable-background:new 0 0 216 117;" xml:space="preserve">
<path d="M198,49.5H18c-2.5,0-4.5,2-4.5,4.5v45c0,2.5,2,4.5,4.5,4.5h180c2.5,0,4.5-2,4.5-4.5V54C202.5,51.5,200.5,49.5,198,49.5z
	 M193.5,94.5h-171v-36h9V72c0,2.5,2,4.5,4.5,4.5s4.5-2,4.5-4.5V58.5h9v9c0,2.5,2,4.5,4.5,4.5s4.5-2,4.5-4.5v-9h9V72
	c0,2.5,2,4.5,4.5,4.5s4.5-2,4.5-4.5V58.5h9v9c0,2.5,2,4.5,4.5,4.5s4.5-2,4.5-4.5v-9h9V72c0,2.5,2,4.5,4.5,4.5s4.5-2,4.5-4.5V58.5h9
	v9c0,2.5,2,4.5,4.5,4.5s4.5-2,4.5-4.5v-9h9V72c0,2.5,2,4.5,4.5,4.5s4.5-2,4.5-4.5V58.5h9v9c0,2.5,2,4.5,4.5,4.5s4.5-2,4.5-4.5v-9h9
	V72c0,2.5,2,4.5,4.5,4.5s4.5-2,4.5-4.5V58.5h9V94.5z M24.8,24.8c0-6.2,5-11.2,11.2-11.2c4.6,0,8.6,2.8,10.3,6.8h123.4
	c1.7-4,5.7-6.8,10.3-6.8c6.2,0,11.2,5,11.2,11.2S186.2,36,180,36c-4.6,0-8.6-2.8-10.3-6.8H46.3c-1.7,4-5.7,6.8-10.3,6.8
	C29.8,36,24.8,31,24.8,24.8z"/>
</svg>
