<?xml version="1.0" encoding="utf-8"?>
<!-- Generator: Adobe Illustrator 23.0.1, SVG Export Plug-In . SVG Version: 6.00 Build 0)  -->
<svg version="1.1" id="Layer_1" xmlns="http://www.w3.org/2000/svg" xmlns:xlink="http://www.w3.org/1999/xlink" x="0px" y="0px"
	 viewBox="0 0 216 216" style="enable-background:new 0 0 216 216;" xml:space="preserve">
<path d="M108,13.5c-52.1,0-94.5,42.4-94.5,94.5s42.4,94.5,94.5,94.5s94.5-42.4,94.5-94.5S160.1,13.5,108,13.5z M108,193.5
	c-47.1,0-85.5-38.4-85.5-85.5c0-47.1,38.4-85.5,85.5-85.5c47.1,0,85.5,38.4,85.5,85.5C193.5,155.1,155.1,193.5,108,193.5z
	 M108,121.5c-7.4,0-13.5-6.1-13.5-13.5c0-4.5,2.2-8.4,5.6-10.9l3.5-34.5c0.2-2.3,2.2-4.1,4.5-4.1c2.3,0,4.2,1.8,4.5,4.1l3.5,34.5
	c3.4,2.5,5.6,6.4,5.6,10.9C121.5,115.4,115.4,121.5,108,121.5z M174.3,146.2c-6.7,11.7-16.4,21.3-28,28c-0.7,0.4-1.5,0.6-2.2,0.6
	c-1.6,0-3.1-0.8-3.9-2.3c0,0,0,0,0-0.1l-6.7-11.6c-1.2-2.2-0.5-4.9,1.6-6.1c2.2-1.2,4.9-0.5,6.1,1.6l4.4,7.7
	c7.3-4.9,13.6-11.2,18.5-18.5l-7.7-4.4c-2.2-1.2-2.9-4-1.6-6.1c1.2-2.2,4-2.9,6.1-1.6l7.7,4.4c3.9-8,6.2-16.6,6.8-25.3h-8.9
	c-2.5,0-4.5-2-4.5-4.5s2-4.5,4.5-4.5h8.9c-0.3-4.3-1-8.7-2.2-13c-1.2-4.3-2.7-8.4-4.6-12.3l-7.7,4.4c-0.7,0.4-1.5,0.6-2.2,0.6
	c-1.6,0-3.1-0.8-3.9-2.3c-1.2-2.2-0.5-4.9,1.6-6.1l7.7-4.4c-4.9-7.3-11.1-13.5-18.5-18.5l-4.4,7.7c-0.8,1.4-2.3,2.3-3.9,2.3
	c-0.8,0-1.5-0.2-2.2-0.6c-2.2-1.2-2.9-4-1.6-6.1l4.4-7.6c-8.1-4-16.7-6.2-25.3-6.8v8.8c0,2.5-2,4.5-4.5,4.5s-4.5-2-4.5-4.5v-8.8
	c-8.8,0.6-17.4,2.9-25.3,6.8l4.4,7.6c1.2,2.2,0.5,4.9-1.6,6.1c-0.7,0.4-1.5,0.6-2.2,0.6c-1.6,0-3.1-0.8-3.9-2.3l-4.4-7.6
	c-7.2,4.8-13.5,11-18.5,18.5l7.6,4.4c2.2,1.2,2.9,4,1.6,6.1c-0.8,1.4-2.3,2.3-3.9,2.3c-0.8,0-1.5-0.2-2.2-0.6l-7.6-4.4
	c-4,8.1-6.2,16.7-6.8,25.3h8.8c2.5,0,4.5,2,4.5,4.5s-2,4.5-4.5,4.5h-8.8c0.6,8.8,2.9,17.4,6.8,25.3l7.6-4.4c2.2-1.2,4.9-0.5,6.1,1.6
	c1.2,2.2,0.5,4.9-1.6,6.1l-7.6,4.4c4.8,7.2,11,13.5,18.5,18.5l4.4-7.6c1.2-2.2,4-2.9,6.1-1.6c2.2,1.2,2.9,4,1.6,6.1l-6.8,11.7
	c-0.1,0.2-0.3,0.5-0.5,0.7c0,0.1-0.1,0.1-0.1,0.1c-0.2,0.2-0.4,0.4-0.6,0.5c0,0,0,0,0,0c-0.2,0.2-0.4,0.3-0.7,0.4
	c-0.1,0-0.1,0.1-0.2,0.1c-0.2,0.1-0.5,0.2-0.7,0.3c0,0,0,0,0,0c-0.2,0.1-0.5,0.1-0.8,0.1c-0.1,0-0.1,0-0.2,0c-0.1,0-0.1,0-0.2,0
	c-0.2,0-0.4,0-0.5,0c0,0,0,0,0,0c-0.3,0-0.5-0.1-0.8-0.2c-0.1,0-0.1,0-0.2-0.1c-0.3-0.1-0.5-0.2-0.7-0.3
	c-11.9-6.9-21.2-16.5-27.7-27.5c-0.1-0.1-0.2-0.3-0.3-0.5c-0.1-0.1-0.1-0.2-0.1-0.3c-6.5-11.4-10-24.4-10.1-37.6c0-0.1,0-0.2,0-0.4
	c0-0.1,0-0.2,0-0.4c0-12.9,3.3-25.9,10.2-37.9C48.6,57.8,58.3,48.5,69.4,42c0.1-0.1,0.2-0.2,0.3-0.2c0.1-0.1,0.2-0.1,0.3-0.2
	c11.4-6.5,24.4-10,37.5-10.1c0.1,0,0.2,0,0.4,0c0.1,0,0.3,0,0.4,0c12.9,0,25.9,3.3,37.9,10.2c17.7,10.2,30.4,26.7,35.6,46.5
	C187.2,107.9,184.5,128.6,174.3,146.2z M137.2,175.5c0,3.7-3,6.8-6.8,6.8h-45c-3.7,0-6.8-3-6.8-6.8s3-6.8,6.8-6.8h45
	C134.2,168.8,137.2,171.8,137.2,175.5z"/>
</svg>
