<?xml version="1.0" encoding="utf-8"?>
<!-- Generator: Adobe Illustrator 23.0.1, SVG Export Plug-In . SVG Version: 6.00 Build 0)  -->
<svg version="1.1" id="Layer_1" xmlns="http://www.w3.org/2000/svg" xmlns:xlink="http://www.w3.org/1999/xlink" x="0px" y="0px"
	 viewBox="0 0 216 216" style="enable-background:new 0 0 216 216;" xml:space="preserve">
<style type="text/css">
	.st0{fill:#FFFFFF;}
</style>
<g>
	<path class="st0" d="M108,13.5c-52.1,0-94.5,42.4-94.5,94.5s42.4,94.5,94.5,94.5c52.1,0,94.5-42.4,94.5-94.5S160.1,13.5,108,13.5z
		 M108,184.5c-42.2,0-76.5-34.3-76.5-76.5c0-42.2,34.3-76.5,76.5-76.5c42.2,0,76.5,34.3,76.5,76.5
		C184.5,150.2,150.2,184.5,108,184.5z"/>
	<circle class="st0" cx="108" cy="60.8" r="13.5"/>
	<path class="st0" d="M126,141.8h-4.5V83.2c0-2.5-2-4.5-4.5-4.5H90c-2.5,0-4.5,2-4.5,4.5v18c0,2.5,2,4.5,4.5,4.5h4.5v36H90
		c-2.5,0-4.5,2-4.5,4.5v18c0,2.5,2,4.5,4.5,4.5h36c2.5,0,4.5-2,4.5-4.5v-18C130.5,143.8,128.5,141.8,126,141.8z"/>
</g>
</svg>
