<?xml version="1.0" encoding="utf-8"?>
<!-- Generator: Adobe Illustrator 23.0.1, SVG Export Plug-In . SVG Version: 6.00 Build 0)  -->
<svg version="1.1" id="Layer_1" xmlns="http://www.w3.org/2000/svg" xmlns:xlink="http://www.w3.org/1999/xlink" x="0px" y="0px"
	 viewBox="0 0 216 216" style="enable-background:new 0 0 216 216;" xml:space="preserve">
<path d="M199.2,183.3l-45-45c-2.6-2.6-6.2-3.6-9.5-3.2l-3.7-3.7c10.3-12.5,16.6-28.5,16.6-45.9c0-39.7-32.3-72-72-72s-72,32.3-72,72
	s32.3,72,72,72c17.4,0,33.4-6.2,45.9-16.6l3.7,3.7c-0.5,3.4,0.6,6.9,3.2,9.5l45,45c2.2,2.2,5.1,3.3,8,3.3s5.8-1.1,8-3.3
	C203.6,194.8,203.6,187.7,199.2,183.3z M85.5,135C58.2,135,36,112.8,36,85.5S58.2,36,85.5,36S135,58.2,135,85.5S112.8,135,85.5,135z
	 M113.8,107.7c2.7,3.2,2.2,7.9-1,10.6c-1.4,1.2-3.1,1.7-4.8,1.7c-2.1,0-4.3-0.9-5.8-2.7L85.5,97.2l-16.7,20.1
	c-1.5,1.8-3.6,2.7-5.8,2.7c-1.7,0-3.4-0.6-4.8-1.7c-3.2-2.7-3.6-7.4-1-10.6l18.5-22.2L57.2,63.3c-2.7-3.2-2.2-7.9,1-10.6
	c3.2-2.7,7.9-2.2,10.6,1l16.7,20.1l16.7-20.1c2.7-3.2,7.4-3.6,10.6-1c3.2,2.7,3.6,7.4,1,10.6L95.3,85.5L113.8,107.7z"/>
</svg>
