<?xml version="1.0" encoding="utf-8"?>
<!-- Generator: Adobe Illustrator 23.0.1, SVG Export Plug-In . SVG Version: 6.00 Build 0)  -->
<svg version="1.1" id="Layer_1" xmlns="http://www.w3.org/2000/svg" xmlns:xlink="http://www.w3.org/1999/xlink" x="0px" y="0px"
	 viewBox="0 0 216 216" style="enable-background:new 0 0 216 216;" xml:space="preserve">
<path d="M144,202.5H63c-17.8,0-22.5-14.7-22.5-22.5V64.2L14.1,20.3c-0.8-1.4-0.9-3.1-0.1-4.5c0.8-1.4,2.3-2.3,3.9-2.3h180
	c2.5,0,4.5,2,4.5,4.5v72c0,0.1-0.2,13.5-18,13.5c-17.8,0-18-13.4-18-13.5v90C166.5,187.8,161.8,202.5,144,202.5z M25.9,22.5
	l22.9,38.2c0.4,0.7,0.6,1.5,0.6,2.3v117c0,2.2,0.8,13.5,13.5,13.5h81c13.1,0,13.5-12.1,13.5-13.5V45c0-2.5,2-4.5,4.5-4.5h9
	c2.5,0,4.5,2,4.5,4.5v44.9c0.1,0.8,0.8,4.6,9,4.6s8.9-3.7,9-4.6V22.5H25.9z M103.5,40.5c0-2.5-2-4.5-4.5-4.5H67.5
	C65,36,63,38,63,40.5s2,4.5,4.5,4.5H99C101.5,45,103.5,43,103.5,40.5z M103.5,148.5c0-2.5-2-4.5-4.5-4.5H67.5c-2.5,0-4.5,2-4.5,4.5
	s2,4.5,4.5,4.5H99C101.5,153,103.5,151,103.5,148.5z M94.5,175.5c0-2.5-2-4.5-4.5-4.5H67.5c-2.5,0-4.5,2-4.5,4.5s2,4.5,4.5,4.5H90
	C92.5,180,94.5,178,94.5,175.5z M94.5,121.5c0-2.5-2-4.5-4.5-4.5H67.5c-2.5,0-4.5,2-4.5,4.5s2,4.5,4.5,4.5H90
	C92.5,126,94.5,124,94.5,121.5z M103.5,94.5c0-2.5-2-4.5-4.5-4.5H67.5C65,90,63,92,63,94.5s2,4.5,4.5,4.5H99
	C101.5,99,103.5,97,103.5,94.5z M94.5,67.5c0-2.5-2-4.5-4.5-4.5H67.5C65,63,63,65,63,67.5s2,4.5,4.5,4.5H90
	C92.5,72,94.5,70,94.5,67.5z"/>
</svg>
