<?xml version="1.0" encoding="utf-8"?>
<!-- Generator: Adobe Illustrator 23.0.1, SVG Export Plug-In . SVG Version: 6.00 Build 0)  -->
<svg version="1.1" id="Layer_1" xmlns="http://www.w3.org/2000/svg" xmlns:xlink="http://www.w3.org/1999/xlink" x="0px" y="0px"
	 viewBox="0 0 216 216" style="enable-background:new 0 0 216 216;" xml:space="preserve">
<path d="M176.7,47.6c1.5-2.3,1.2-5.4-0.8-7.5s-5.1-2.3-7.5-0.8C132.5,7.7,77.6,9,43.3,43.3C7.6,79,7.6,137,43.3,172.7
	c17.8,17.8,41.3,26.8,64.7,26.8c23.4,0,46.9-8.9,64.7-26.8C207,138.4,208.3,83.5,176.7,47.6z M170.6,170.6
	c-34.5,34.5-90.7,34.5-125.2,0c-34.5-34.5-34.5-90.7,0-125.2C62.7,28.2,85.3,19.5,108,19.5c20.9,0,41.7,7.3,58.4,22
	c-1.2,2.3-0.9,5.2,1,7.1c1.9,1.9,4.8,2.2,7.1,1C205,84.3,203.7,137.4,170.6,170.6z M179,89c-5.1-19-17.2-34.8-34.2-44.6
	c-32.5-18.7-73.4-9.8-95.4,19.4c-4.2-1.9-9.1-0.3-11.5,3.7c-2.3,4-1.2,9.1,2.5,11.8C26,113,38.8,152.9,71.2,171.7
	c11.3,6.5,23.9,9.9,36.6,9.9c6.4,0,12.8-0.8,19.1-2.5c19-5.1,34.8-17.2,44.6-34.2C181.5,127.7,184.1,107.9,179,89z M169.1,143.2
	c-9.4,16.3-24.6,28-42.8,32.8c-18.2,4.9-37.2,2.4-53.5-7c-16.3-9.4-28-24.6-32.8-42.8c-4.1-15.3-3-31.2,3.1-45.6
	c3.9,1.2,8.3-0.4,10.4-4.1c2.1-3.7,1.3-8.3-1.6-11.1c13.6-18,34.7-27.9,56.3-27.9c12,0,24.1,3,35.1,9.4c16.3,9.4,28,24.6,32.8,42.8
	C181,107.9,178.5,126.9,169.1,143.2z M122.4,54.4c-29.6-7.9-60.1,9.7-68,39.2c-3.8,14.3-1.9,29.3,5.5,42.1
	c6.2,10.7,15.5,18.8,26.7,23.5c-0.5,3.7,1.8,7.2,5.5,8.2c3.7,1,7.4-0.9,8.9-4.4c2.4,0.3,4.7,0.5,7.1,0.5c24.5,0,47-16.4,53.6-41.1
	C169.5,92.8,151.9,62.3,122.4,54.4z M158.7,121.6c-6.9,25.6-31.6,41.7-57.2,38.5c0-3.3-2.2-6.3-5.6-7.2c-3.3-0.9-6.7,0.6-8.4,3.4
	c-23.8-10-37.1-36.3-30.3-61.9c7.5-28,36.3-44.6,64.3-37.1C149.5,64.8,166.2,93.6,158.7,121.6z M139.2,90c9.9,17.2,4,39.2-13.2,49.2
	c-17.2,9.9-39.2,4-49.2-13.2c-9.9-17.2-4-39.2,13.2-49.2C107.2,66.9,129.2,72.8,139.2,90z"/>
</svg>
