<?xml version="1.0" encoding="utf-8"?>
<!-- Generator: Adobe Illustrator 23.0.1, SVG Export Plug-In . SVG Version: 6.00 Build 0)  -->
<svg version="1.1" id="Layer_1" xmlns="http://www.w3.org/2000/svg" xmlns:xlink="http://www.w3.org/1999/xlink" x="0px" y="0px"
	 viewBox="0 0 126 216" style="enable-background:new 0 0 126 216;" xml:space="preserve">
<path d="M108,49.5H90v-9c0-14.9-12.1-27-27-27s-27,12.1-27,27v54H18c-2.5,0-4.5,2-4.5,4.5s2,4.5,4.5,4.5h18v18
	c-11.3,8.5-18,21.8-18,36c0,24.8,20.2,45,45,45c24.8,0,45-20.2,45-45c0-14.2-6.7-27.5-18-36v-63h18c2.5,0,4.5-2,4.5-4.5
	S110.5,49.5,108,49.5z M99,157.5c0,19.9-16.1,36-36,36s-36-16.1-36-36c0-12,6-23.2,16-29.9c1.2-0.8,2-2.2,2-3.7V40.5
	c0-9.9,8.1-18,18-18c9.9,0,18,8.1,18,18v83.3c0,1.5,0.7,2.9,2,3.7C93,134.3,99,145.5,99,157.5z M85.5,157.5
	c0,12.4-10.1,22.5-22.5,22.5s-22.5-10.1-22.5-22.5c0-10.1,6.6-18.6,15.8-21.5V45c0-3.7,3-6.8,6.8-6.8c3.7,0,6.8,3,6.8,6.8v91
	C78.9,138.9,85.5,147.4,85.5,157.5z"/>
</svg>
