<?xml version="1.0" encoding="utf-8"?>
<!-- Generator: Adobe Illustrator 23.0.1, SVG Export Plug-In . SVG Version: 6.00 Build 0)  -->
<svg version="1.1" id="Layer_1" xmlns="http://www.w3.org/2000/svg" xmlns:xlink="http://www.w3.org/1999/xlink" x="0px" y="0px"
	 viewBox="0 0 216 162" style="enable-background:new 0 0 216 162;" xml:space="preserve">
<path d="M166.4,74.3c-1-1.7-3-2.6-5-2.1L108,85.5c-3.8,0-7.5,0.9-10.9,2.8c0,0-0.1,0-0.1,0c-0.1,0-0.2,0.1-0.2,0.1
	c-5.2,3-8.9,7.9-10.5,13.7c-1.6,5.8-0.8,11.9,2.2,17.1c4.2,7.2,11.7,11.2,19.5,11.2c3.8,0,7.7-1,11.2-3c3.6-2.1,6.3-4.9,8.2-8.3
	l38.3-39.6C167.1,78.2,167.4,76,166.4,74.3z M114.7,119.7c-0.2,0.1-0.3,0.2-0.5,0.2l0,0c0,0,0,0,0,0c-2.4,1.3-5,1.7-7.5,1.5
	c0,0,0,0,0,0c-0.4,0-0.8-0.1-1.2-0.2c0,0-0.1,0-0.1,0c-0.4-0.1-0.7-0.2-1.1-0.3c-0.1,0-0.1,0-0.2-0.1c-0.3-0.1-0.7-0.2-1-0.3
	c-0.1,0-0.2-0.1-0.3-0.1c-0.3-0.1-0.6-0.3-0.9-0.4c-0.1-0.1-0.2-0.1-0.3-0.2c-0.3-0.1-0.5-0.3-0.8-0.4c-0.1-0.1-0.3-0.2-0.4-0.3
	c-0.2-0.1-0.4-0.3-0.7-0.5c-0.2-0.1-0.3-0.2-0.4-0.4c-0.2-0.2-0.4-0.3-0.5-0.5c-0.2-0.2-0.3-0.3-0.5-0.5c-0.1-0.2-0.3-0.3-0.4-0.5
	c-0.2-0.2-0.4-0.4-0.5-0.7c-0.1-0.1-0.2-0.2-0.3-0.4c-0.3-0.4-0.5-0.7-0.7-1.1c-1.8-3.1-2.3-6.8-1.3-10.2c0.1-0.4,0.2-0.8,0.4-1.2
	c0.1-0.2,0.2-0.4,0.2-0.6c0.1-0.2,0.2-0.4,0.3-0.6c0.1-0.3,0.3-0.5,0.4-0.8c0.1-0.1,0.1-0.2,0.2-0.3c0.2-0.3,0.4-0.6,0.6-0.9
	c0-0.1,0.1-0.1,0.1-0.2c0.2-0.3,0.5-0.6,0.7-0.9c0,0,0,0,0.1-0.1c0.3-0.3,0.6-0.6,0.9-0.9c0,0,0,0,0,0c0.7-0.7,1.6-1.3,2.5-1.8
	c2.1-1.2,4.4-1.8,6.7-1.8c0.9,0,1.7,0.1,2.5,0.3c0,0,0,0,0,0c0.5,0.1,1,0.2,1.5,0.4c0,0,0.1,0,0.1,0c0.5,0.1,0.9,0.3,1.3,0.5
	c0.1,0,0.2,0.1,0.3,0.1c0.4,0.2,0.8,0.4,1.2,0.6c0.1,0.1,0.3,0.2,0.4,0.3c0.3,0.2,0.6,0.4,1,0.7c0.2,0.1,0.4,0.3,0.5,0.5
	c0.2,0.2,0.5,0.4,0.7,0.7c0.2,0.2,0.4,0.5,0.7,0.7c0.2,0.2,0.3,0.4,0.5,0.6c0.4,0.5,0.7,1,1,1.5c0.3,0.5,0.5,0.9,0.7,1.4
	c0.1,0.1,0.1,0.3,0.2,0.4c0.1,0.3,0.3,0.7,0.4,1c0.1,0.2,0.1,0.3,0.1,0.5c0.1,0.3,0.2,0.7,0.2,1c0,0.1,0.1,0.3,0.1,0.4
	c0.1,0.5,0.1,1,0.1,1.5c0,0,0,0,0,0c0,0.5,0,1,0,1.5c0,0.1,0,0.2,0,0.4c0,0.4-0.1,0.8-0.2,1.1c0,0.1-0.1,0.3-0.1,0.4
	c-0.1,0.4-0.2,0.7-0.3,1.1c0,0.1-0.1,0.2-0.1,0.4C119.6,115.4,117.6,118,114.7,119.7z M130,103.6c-0.5-2.4-1.3-4.7-2.6-6.9
	c-1.3-2.2-2.8-4.1-4.7-5.7l25.6-6.4L130,103.6z M37.1,99.7c-0.7,0-1.3-0.1-2-0.5c-1.8-0.9-2.8-2.9-2.5-4.8c1.6-8.7,4.6-16.9,9-24.6
	c21.1-36.5,68-49.1,104.5-28c1,0.6,1.8,1.6,2.1,2.7c0.3,1.2,0.1,2.4-0.4,3.4l-13.5,23.4c-1,1.8-3.2,2.7-5.2,2.1
	c-31.7-9.7-66.5,0.1-88.7,24.8C39.6,99.1,38.3,99.7,37.1,99.7z M108.1,40.5c-23.3,0-46.1,12.1-58.6,33.7c-1.2,2-2.2,4.1-3.2,6.2
	c23-17.8,53.4-24.2,82-16.7l9.4-16.3C128.2,42.8,118.1,40.5,108.1,40.5z M190.4,148.5h-165c-1.8,0-3.4-1.1-4.1-2.7
	c-11.9-27.4-10.1-59.2,4.8-85c12.6-21.9,33-37.5,57.4-44c24.4-6.5,49.8-3.2,71.7,9.4c41.7,24.1,58.7,75.5,39.4,119.6
	C193.8,147.5,192.2,148.5,190.4,148.5z M28.5,139.5h159c15.6-39.3,0.2-84.2-36.7-105.5c-19.8-11.4-42.8-14.5-64.9-8.5
	c-22.1,5.9-40.5,20.1-51.9,39.8C20.9,87.8,18.9,115.4,28.5,139.5z"/>
</svg>
