<?xml version="1.0" encoding="utf-8"?>
<!-- Generator: Adobe Illustrator 23.0.1, SVG Export Plug-In . SVG Version: 6.00 Build 0)  -->
<svg version="1.1" id="Layer_1" xmlns="http://www.w3.org/2000/svg" xmlns:xlink="http://www.w3.org/1999/xlink" x="0px" y="0px"
	 viewBox="0 0 216 216" style="enable-background:new 0 0 216 216;" xml:space="preserve">
<path d="M201.2,194.8L100.4,94l0,0l0,0L78.7,72.4l0,0l0,0L57.1,50.7l0,0l0,0L21.2,14.8c-1.3-1.3-3.2-1.7-4.9-1s-2.8,2.3-2.8,4.2v180
	c0,2.5,2,4.5,4.5,4.5h180c1.8,0,3.5-1.1,4.2-2.8S202.5,196.1,201.2,194.8z M22.5,193.5V28.9l25,25L38,63.5c-1.8,1.8-1.8,4.6,0,6.4
	c0.9,0.9,2,1.3,3.2,1.3s2.3-0.4,3.2-1.3l9.5-9.5l15.3,15.3l-9.5,9.5c-1.8,1.8-1.8,4.6,0,6.4c0.9,0.9,2,1.3,3.2,1.3s2.3-0.4,3.2-1.3
	l9.5-9.5l15.3,15.3l-9.5,9.5c-1.8,1.8-1.8,4.6,0,6.4c0.9,0.9,2,1.3,3.2,1.3s2.3-0.4,3.2-1.3l9.5-9.5l15.3,15.3l-9.5,9.5
	c-1.8,1.8-1.8,4.6,0,6.4c0.9,0.9,2,1.3,3.2,1.3s2.3-0.4,3.2-1.3l9.5-9.5l15.3,15.3l-9.5,9.5c-1.8,1.8-1.8,4.6,0,6.4
	c0.9,0.9,2,1.3,3.2,1.3s2.3-0.4,3.2-1.3l9.5-9.5l15.3,15.3l-9.5,9.5c-1.8,1.8-1.8,4.6,0,6.4c0.9,0.9,2,1.3,3.2,1.3s2.3-0.4,3.2-1.3
	l9.5-9.5l25,25H22.5V193.5z M52.7,100.3c-1.3-1.3-3.2-1.7-4.9-1s-2.8,2.3-2.8,4.2v63c0,2.5,2,4.5,4.5,4.5h63c1.8,0,3.5-1.1,4.2-2.8
	s0.3-3.6-1-4.9L52.7,100.3z M54,162v-47.6l47.6,47.6H54z M75.1,55.3c0,0.1,0,0.1,0.1,0.2c0,0.1,0.1,0.1,0.1,0.2
	c0.1,0.2,0.2,0.5,0.4,0.7c0,0,0,0,0,0.1c0.1,0.2,0.3,0.4,0.5,0.6c0,0,0,0.1,0.1,0.1l78.5,78.5l0,0l0,0l19.1,19.1
	c1.1,1.1,3.7,2.7,7,2.7c2.9,0,6.3-1.2,10-4.8l6.4-6.4c4.6-4.6,5.1-8.8,4.7-11.5c-0.5-3.2-2.2-5.1-2.6-5.5l-97.6-97.6
	c0,0-0.1,0-0.1-0.1c-0.2-0.2-0.4-0.3-0.6-0.5l0,0c-0.2-0.1-0.4-0.3-0.7-0.4c-0.1,0-0.1-0.1-0.2-0.1s-0.1,0-0.2-0.1L71.2,21
	c-1.6-0.5-3.4-0.1-4.6,1.1s-1.6,3-1.1,4.6L75.1,55.3z M170.6,113.3L157.9,126L85.7,53.9l12.7-12.7L170.6,113.3z M181.2,123.9
	l-12.7,12.7l-4.2-4.2l12.7-12.7L181.2,123.9z M180,148.2C180.1,148.3,180.1,148.3,180,148.2L180,148.2z M192.9,135.6
	C192.9,135.6,192.8,135.5,192.9,135.6L192.9,135.6z M190.7,139.8l-6.4,6.4c-1.8,1.8-3.5,2.6-4.4,2l-5.2-5.2l12.7-12.7l5.2,5.2
	C193.3,136.3,192.5,138,190.7,139.8z M90.1,36.8l-8.8,8.8l-4.4-13.2L90.1,36.8z M109.3,64.7c1.8-1.8,4.6-1.8,6.4,0L147,96.1
	c1.8,1.8,1.8,4.6,0,6.4c-0.9,0.9-2,1.3-3.2,1.3s-2.3-0.4-3.2-1.3l-31.4-31.4C107.5,69.3,107.5,66.5,109.3,64.7z"/>
</svg>
