<?xml version="1.0" encoding="utf-8"?>
<!-- Generator: Adobe Illustrator 23.0.1, SVG Export Plug-In . SVG Version: 6.00 Build 0)  -->
<svg version="1.1" id="Layer_1" xmlns="http://www.w3.org/2000/svg" xmlns:xlink="http://www.w3.org/1999/xlink" x="0px" y="0px"
	 viewBox="0 0 216 216" style="enable-background:new 0 0 216 216;" xml:space="preserve">
<path d="M202.5,89.9c0-0.2,0-0.3,0-0.5c0-0.1,0-0.3-0.1-0.4c0-0.1-0.1-0.3-0.1-0.4c-0.1-0.2-0.1-0.3-0.2-0.4c0,0,0-0.1,0-0.1
	l-26.6-53.2c1.4-0.8,2.5-1.9,3.3-3.3H189c2.5,0,4.5-2,4.5-4.5s-2-4.5-4.5-4.5h-10.2c-1.6-2.7-4.5-4.5-7.8-4.5s-6.2,1.8-7.8,4.5
	h-42.5c-1.9-5.2-6.8-9-12.7-9c-5.9,0-10.9,3.8-12.7,9H52.8C51.2,19.8,48.3,18,45,18s-6.2,1.8-7.8,4.5H27c-2.5,0-4.5,2-4.5,4.5
	s2,4.5,4.5,4.5h10.2c0.8,1.4,2,2.5,3.3,3.3L14,88c0,0,0,0.1,0,0.1c-0.1,0.1-0.1,0.3-0.2,0.5c0,0.1-0.1,0.3-0.1,0.4
	c0,0.1,0,0.3-0.1,0.4c0,0.2,0,0.3,0,0.5c0,0,0,0.1,0,0.1c0,17.4,14.1,31.5,31.5,31.5S76.5,107.4,76.5,90c0,0,0-0.1,0-0.1
	c0-0.2,0-0.3,0-0.5c0-0.1,0-0.3-0.1-0.4c0-0.1-0.1-0.3-0.1-0.4c-0.1-0.2-0.1-0.3-0.2-0.5c0,0,0-0.1,0-0.1L49.4,34.8
	c1.4-0.8,2.5-1.9,3.3-3.3h42.5c1.4,3.8,4.4,6.9,8.2,8.2v127c-20.5,1.5-30.5,12.7-34,17.8H54c-2.5,0-4.5,2-4.5,4.5v9
	c0,2.5,2,4.5,4.5,4.5h108c2.5,0,4.5-2,4.5-4.5v-9c0-2.5-2-4.5-4.5-4.5h-15.5c-3.5-5.1-13.5-16.4-34-17.8v-127
	c3.8-1.4,6.9-4.4,8.2-8.2h42.5c0.8,1.4,2,2.5,3.3,3.3L140,88c0,0,0,0.1,0,0.1c-0.1,0.1-0.1,0.3-0.2,0.4c0,0.1-0.1,0.3-0.1,0.4
	c0,0.1,0,0.3-0.1,0.4c0,0.2,0,0.3,0,0.5c0,0,0,0.1,0,0.1c0,17.4,14.1,31.5,31.5,31.5s31.5-14.1,31.5-31.5
	C202.5,90,202.5,89.9,202.5,89.9z M45,112.5c-10.9,0-20-7.7-22-18H67C65,104.8,55.9,112.5,45,112.5z M64.7,85.5H25.3L45,46.1
	L64.7,85.5z M134.5,184.5H81.5c4.8-4.3,13.2-9,26.5-9C121.4,175.5,129.7,180.3,134.5,184.5z M108,31.5c-2.5,0-4.5-2-4.5-4.5
	s2-4.5,4.5-4.5s4.5,2,4.5,4.5S110.5,31.5,108,31.5z M171,46.1l19.7,39.4h-39.4L171,46.1z M171,112.5c-10.9,0-20-7.7-22-18H193
	C191,104.8,181.9,112.5,171,112.5z"/>
</svg>
