<?xml version="1.0" encoding="utf-8"?>
<!-- Generator: Adobe Illustrator 23.0.1, SVG Export Plug-In . SVG Version: 6.00 Build 0)  -->
<svg version="1.1" id="Layer_1" xmlns="http://www.w3.org/2000/svg" xmlns:xlink="http://www.w3.org/1999/xlink" x="0px" y="0px"
	 viewBox="0 0 216 216" style="enable-background:new 0 0 216 216;" xml:space="preserve">
<style type="text/css">
	.st0{display:none;}
</style>
<path class="st0" d="M202.5,180v18c0,2.5-2,4.5-4.5,4.5s-4.5-2-4.5-4.5v-4.5H27c-2.5,0-4.5-2-4.5-4.5V22.5H18c-2.5,0-4.5-2-4.5-4.5
	s2-4.5,4.5-4.5h18c2.5,0,4.5,2,4.5,4.5s-2,4.5-4.5,4.5h-4.5v81.1c1.1,0.1,2.3,0.1,3.4,0.2c2.5,0.2,4.3,2.4,4.1,4.9
	c-0.2,2.3-2.2,4.1-4.5,4.1c-0.1,0-0.3,0-0.4,0c-0.9-0.1-1.7-0.1-2.6-0.2v71.9h71.9c0-0.9-0.1-1.7-0.2-2.6c-0.2-2.5,1.6-4.7,4.1-4.9
	s4.7,1.6,4.9,4.1c0.1,1.1,0.2,2.3,0.2,3.4h81.1V180c0-2.5,2-4.5,4.5-4.5S202.5,177.5,202.5,180z M86.2,140.5
	c0.9,1.1,2.2,1.6,3.5,1.6c1,0,2-0.3,2.9-1c1.9-1.6,2.2-4.4,0.6-6.3c-3.6-4.4-7.6-8.4-11.9-11.9c-1.9-1.6-4.8-1.3-6.3,0.6
	c-1.6,1.9-1.3,4.8,0.6,6.3C79.4,133,83,136.6,86.2,140.5z M94.6,153.1c2.4,4.5,4.3,9.2,5.7,14c0.6,2,2.4,3.2,4.3,3.2
	c0.4,0,0.9-0.1,1.3-0.2c2.4-0.7,3.7-3.2,3-5.6c-1.6-5.4-3.8-10.7-6.4-15.6c-1.2-2.2-3.9-3-6.1-1.9C94.2,148.2,93.4,150.9,94.6,153.1
	z M48.9,115.7c4.8,1.4,9.5,3.4,14,5.7c0.7,0.4,1.4,0.5,2.1,0.5c1.6,0,3.2-0.9,4-2.4c1.2-2.2,0.3-4.9-1.9-6.1
	c-5-2.7-10.2-4.8-15.6-6.4c-2.4-0.7-4.9,0.6-5.6,3C45.2,112.5,46.5,115,48.9,115.7z"/>
<path d="M108,13.5c-52.1,0-94.5,42.4-94.5,94.5s42.4,94.5,94.5,94.5s94.5-42.4,94.5-94.5S160.1,13.5,108,13.5z M193.4,103.5h-13.5
	h-63.6l34.7-53.3c1.4,4.8,2.2,9.6,2.5,14.2l4.3-4.2l0.6,0.7c4,4.3,7.5,9,10.2,14.2c2.8,5.1,4.9,10.6,6.3,16.3
	c0.1,0.3,0.2,0.6,0.2,0.9l-5.8,1.4c3.7,2.7,7.2,6,10.5,9.8c2.7-4.2,5.1-8.8,7-13.9l-5.8,1.4c-0.1-0.3-0.2-0.7-0.3-1
	c-1.5-6.2-3.9-12.1-6.9-17.7c-3-5.6-6.8-10.8-11.1-15.4l-0.7-0.8l4.3-4.2c-5.3-1.1-10.5-1.7-15.5-1.7l7.3-11.3
	C178.5,53.6,192,77,193.4,103.5z M108,193.5c-47.1,0-85.5-38.4-85.5-85.5c0-47.1,38.4-85.5,85.5-85.5c15.6,0,30.2,4.2,42.7,11.5
	l-51,78.5h93.7C191,157.6,153.6,193.5,108,193.5z"/>
</svg>
