<?xml version="1.0" encoding="utf-8"?>
<!-- Generator: Adobe Illustrator 23.0.1, SVG Export Plug-In . SVG Version: 6.00 Build 0)  -->
<svg version="1.1" id="Layer_1" xmlns="http://www.w3.org/2000/svg" xmlns:xlink="http://www.w3.org/1999/xlink" x="0px" y="0px"
	 viewBox="0 0 216 180" style="enable-background:new 0 0 216 180;" xml:space="preserve">
<path d="M100.5,166.5c0,0-0.1,0-0.1,0c-2,0-3.7-1.4-4.2-3.4L71.9,71.2l-18.1,65c-0.5,1.9-2.2,3.2-4.2,3.3c-2,0-3.8-1.2-4.4-3.1
	l-8-23.9H18c-2.5,0-4.5-2-4.5-4.5s2-4.5,4.5-4.5h22.5c1.9,0,3.7,1.2,4.3,3.1l4.3,13l18.6-66.8c0.5-1.9,2.3-3.3,4.3-3.3c0,0,0,0,0,0
	c2,0,3.8,1.4,4.3,3.4l24.5,92.9l40.3-129.1c0.6-2,2.5-3.2,4.5-3.2c2,0.1,3.8,1.6,4.2,3.6l22.4,105.5l6.5-16.2
	c0.7-1.7,2.3-2.8,4.2-2.8h15c2.5,0,4.5,2,4.5,4.5s-2,4.5-4.5,4.5h-12l-10.9,27.2c-0.7,1.8-2.6,3-4.6,2.8c-2-0.2-3.6-1.6-4-3.5
	L144.7,35.7l-39.9,127.6C104.2,165.2,102.5,166.5,100.5,166.5z"/>
</svg>
