<?xml version="1.0" encoding="utf-8"?>
<!-- Generator: Adobe Illustrator 23.0.1, SVG Export Plug-In . SVG Version: 6.00 Build 0)  -->
<svg version="1.1" id="Layer_1" xmlns="http://www.w3.org/2000/svg" xmlns:xlink="http://www.w3.org/1999/xlink" x="0px" y="0px"
	 viewBox="0 0 216 216" style="enable-background:new 0 0 216 216;" xml:space="preserve">
<path d="M198,13.5H18c-2.5,0-4.5,2-4.5,4.5s2,4.5,4.5,4.5h85.5v9.2c-25.2,2.3-45,23.5-45,49.3v59.3c-5.2,1.9-9,6.8-9,12.7
	c0,1.6,0.3,3.1,0.8,4.5H45c-2.1,0-3.9,1.4-4.4,3.4l-9,36c-0.3,1.3,0,2.8,0.8,3.9c0.9,1.1,2.2,1.7,3.5,1.7h54c1.4,0,2.7-0.6,3.5-1.7
	c0.9-1.1,1.2-2.5,0.8-3.9l-9-36c-0.5-2-2.3-3.4-4.4-3.4h-5.3c0.5-1.4,0.8-2.9,0.8-4.5c0-5.9-3.8-10.9-9-12.7v-30.9
	c9,12.7,23.8,21.1,40.5,21.1c16.7,0,31.5-8.3,40.5-21.1v63.3l-5.1-8.6c-1.3-2.1-4-2.8-6.2-1.5c-2.1,1.3-2.8,4-1.5,6.2l13.5,22.5
	c0.8,1.4,2.3,2.2,3.9,2.2s3-0.8,3.9-2.2l13.5-22.5c1.3-2.1,0.6-4.9-1.5-6.2c-2.1-1.3-4.9-0.6-6.2,1.5l-5.1,8.6V81
	c0-25.8-19.8-47-45-49.3v-9.2H198c2.5,0,4.5-2,4.5-4.5S200.5,13.5,198,13.5z M84.2,193.5H41.8l6.8-27h29L84.2,193.5z M58.5,153
	c0-2.5,2-4.5,4.5-4.5s4.5,2,4.5,4.5s-2,4.5-4.5,4.5S58.5,155.5,58.5,153z M108,72c5,0,9,4,9,9s-4,9-9,9c-5,0-9-4-9-9S103,72,108,72z
	 M148.5,81c0,22.3-18.2,40.5-40.5,40.5c-22.3,0-40.5-18.2-40.5-40.5c0-20.8,15.8-38,36-40.2V63c0,0.2,0,0.4,0.1,0.6
	c-7.8,2-13.6,9-13.6,17.4c0,9.9,8.1,18,18,18c9.9,0,18-8.1,18-18c0-8.4-5.8-15.4-13.6-17.4c0-0.2,0.1-0.4,0.1-0.6V40.8
	C132.7,43,148.5,60.2,148.5,81z"/>
</svg>
