<?xml version="1.0" encoding="utf-8"?>
<!-- Generator: Adobe Illustrator 23.0.1, SVG Export Plug-In . SVG Version: 6.00 Build 0)  -->
<svg version="1.1" id="Layer_1" xmlns="http://www.w3.org/2000/svg" xmlns:xlink="http://www.w3.org/1999/xlink" x="0px" y="0px"
	 viewBox="0 0 216 216" style="enable-background:new 0 0 216 216;" xml:space="preserve">
<path d="M108,202.5c-52.1,0-94.5-42.4-94.5-94.5S55.9,13.5,108,13.5s94.5,42.4,94.5,94.5S160.1,202.5,108,202.5z M108,22.5
	c-47.1,0-85.5,38.4-85.5,85.5c0,47.1,38.4,85.5,85.5,85.5c47.1,0,85.5-38.4,85.5-85.5C193.5,60.9,155.1,22.5,108,22.5z M108,27
	c-44.7,0-81,36.3-81,81c0,44.7,36.3,81,81,81s81-36.3,81-81C189,63.3,152.7,27,108,27z M154.8,135c-0.8,1.4-2.3,2.3-3.9,2.3
	c-0.8,0-1.5-0.2-2.2-0.6l-42.9-24.8c0,0-0.1-0.1-0.1-0.1c-0.1-0.1-0.3-0.2-0.4-0.3c-0.1-0.1-0.2-0.2-0.3-0.3
	c-0.1-0.1-0.2-0.2-0.3-0.3c-0.1-0.1-0.2-0.2-0.3-0.3c-0.1-0.1-0.2-0.2-0.2-0.4c-0.1-0.1-0.1-0.2-0.2-0.4c-0.1-0.1-0.1-0.3-0.2-0.4
	c0-0.1-0.1-0.3-0.1-0.4c0-0.1,0-0.3-0.1-0.4c0-0.2,0-0.3,0-0.5c0-0.1,0-0.1,0-0.1V45c0-2.5,2-4.5,4.5-4.5s4.5,2,4.5,4.5v60.4
	l40.6,23.5C155.3,130.1,156,132.8,154.8,135z"/>
</svg>
