<?xml version="1.0" encoding="utf-8"?>
<!-- Generator: Adobe Illustrator 23.0.1, SVG Export Plug-In . SVG Version: 6.00 Build 0)  -->
<svg version="1.1" id="Layer_1" xmlns="http://www.w3.org/2000/svg" xmlns:xlink="http://www.w3.org/1999/xlink" x="0px" y="0px"
	 viewBox="0 0 216 216" style="enable-background:new 0 0 216 216;" xml:space="preserve">
<path d="M139.5,198c0,2.5-2,4.5-4.5,4.5H18c-2.5,0-4.5-2-4.5-4.5V81c0-2.5,2-4.5,4.5-4.5s4.5,2,4.5,4.5v112.5H135
	C137.5,193.5,139.5,195.5,139.5,198z M198,13.5H81c-2.5,0-4.5,2-4.5,4.5s2,4.5,4.5,4.5h112.5V135c0,2.5,2,4.5,4.5,4.5s4.5-2,4.5-4.5
	V18C202.5,15.5,200.5,13.5,198,13.5z M202.5,153v45c0,2.5-2,4.5-4.5,4.5h-45c-1.8,0-3.5-1.1-4.2-2.8c-0.7-1.7-0.3-3.6,1-4.9
	l19.3-19.3L40.5,46.9L21.2,66.2c-0.9,0.9-2,1.3-3.2,1.3c-0.6,0-1.2-0.1-1.7-0.3c-1.7-0.7-2.8-2.3-2.8-4.2V18c0-2.5,2-4.5,4.5-4.5h45
	c1.8,0,3.5,1.1,4.2,2.8c0.7,1.7,0.3,3.6-1,4.9L46.9,40.5l128.6,128.6l19.3-19.3c1.3-1.3,3.2-1.7,4.9-1
	C201.4,149.5,202.5,151.2,202.5,153z M22.5,52.1l29.6-29.6H22.5V52.1z M193.5,163.9l-29.6,29.6h29.6V163.9z"/>
</svg>
